<?xml version="1.0" encoding="UTF-8" standalone="no"?>
<svg
   height="329pt"
   viewBox="0 0 329.26933 329"
   width="329pt"
   version="1.1"
   id="svg4"
   sodipodi:docname="close.svg"
   inkscape:version="1.1 (c4e8f9ed74, 2021-05-24)"
   xmlns:inkscape="http://www.inkscape.org/namespaces/inkscape"
   xmlns:sodipodi="http://sodipodi.sourceforge.net/DTD/sodipodi-0.dtd"
   xmlns="http://www.w3.org/2000/svg"
   xmlns:svg="http://www.w3.org/2000/svg">
  <defs
     id="defs8" />
  <sodipodi:namedview
     id="namedview6"
     pagecolor="#ffffff"
     bordercolor="#666666"
     borderopacity="1.0"
     inkscape:pageshadow="2"
     inkscape:pageopacity="0.0"
     inkscape:pagecheckerboard="0"
     inkscape:document-units="pt"
     showgrid="false"
     inkscape:zoom="1.5045593"
     inkscape:cx="99.364645"
     inkscape:cy="219.33333"
     inkscape:window-width="1920"
     inkscape:window-height="1050"
     inkscape:window-x="0"
     inkscape:window-y="0"
     inkscape:window-maximized="1"
     inkscape:current-layer="svg4" />
  <path
     d="m 175.76816,164.76802 47.3189,-48.86389 c 3.07944,-3.1784 3.07944,-8.31742 0,-11.49581 -3.07799,-3.1784 -8.05468,-3.1784 -11.13267,0 l -47.32035,48.86389 -47.3189,-48.86389 c -3.07943,-3.1784 -8.05468,-3.1784 -11.13267,0 -3.07944,3.17839 -3.07944,8.31741 0,11.49581 l 47.3189,48.86389 -47.3189,48.86389 c -3.07944,3.1784 -3.07944,8.31742 0,11.49582 1.53395,1.58547 3.55086,2.38193 5.56633,2.38193 2.01548,0 4.03095,-0.79646 5.56634,-2.38193 l 47.3189,-48.8639 47.32035,48.8639 c 1.53539,1.58547 3.55086,2.38193 5.56634,2.38193 2.01547,0 4.03094,-0.79646 5.56633,-2.38193 3.07944,-3.1784 3.07944,-8.31742 0,-11.49582 z m 0,0"
     id="path2"
     style="fill:#ffffff;fill-opacity:1;stroke-width:0.375042;stroke:#000000;stroke-opacity:1" />
</svg>
